<svg width="166" height="166" viewBox="0 0 166 166" fill="none" xmlns="http://www.w3.org/2000/svg">
<path fill="#8F2152" opacity="1.000000" stroke="none" 
	d="
M263.000000,60.000000 
	C263.000000,117.687561 263.000000,175.375122 262.607788,233.512207 
	C260.304352,233.439713 258.312805,233.113464 256.493713,232.366974 
	C212.387054,214.267197 168.298813,196.122604 124.205154,177.518402 
	C124.414474,161.922058 124.759354,146.793900 124.811874,131.664719 
	C124.960854,88.748489 124.990318,45.831848 125.438492,2.961710 
	C128.676041,4.236222 131.532608,5.486701 134.409271,6.689122 
	C164.973877,19.464848 195.527985,32.265862 226.115326,44.986950 
	C238.371567,50.084248 250.702866,55.001045 263.000000,60.000000 
z"/>
<path fill="#BD4D60" opacity="1.000000" stroke="none" 
	d="
M125.066849,2.915365 
	C124.990318,45.831848 124.960854,88.748489 124.811874,131.664719 
	C124.759354,146.793900 124.414474,161.922058 123.844315,177.650238 
	C86.758499,191.995041 50.022682,205.717010 13.319648,219.526093 
	C10.086477,220.742523 7.067703,222.528809 3.518367,224.004379 
	C2.391588,223.972229 1.695794,223.986115 1.000000,224.000000 
	C1.000000,167.645767 1.000000,111.291542 1.326391,54.724724 
	C10.927291,50.412895 20.178221,46.259277 29.481041,42.225327 
	C51.193172,32.810371 72.903656,23.390633 94.669334,14.100595 
	C104.383530,9.954372 114.229012,6.115750 124.170708,2.295102 
	C124.535599,2.664954 124.770370,2.843482 125.017792,2.959138 
	C125.004784,2.930018 125.066849,2.915365 125.066849,2.915365 
z"/>
<path fill="#A63A60" opacity="1.000000" stroke="none" 
	d="
M3.949354,224.050430 
	C7.067703,222.528809 10.086477,220.742523 13.319648,219.526093 
	C50.022682,205.717010 86.758499,191.995041 123.846382,178.117935 
	C168.298813,196.122604 212.387054,214.267197 256.493713,232.366974 
	C258.312805,233.113464 260.304352,233.439713 262.607788,233.980865 
	C263.000000,234.000000 263.000000,234.500000 262.604004,234.749481 
	C245.896149,240.686829 229.578033,246.356918 213.273911,252.066956 
	C192.474045,259.351501 171.680832,266.655304 150.910172,274.022461 
	C150.136932,274.296753 149.630676,275.323761 149.000000,276.000000 
	C146.958328,276.000000 144.916672,276.000000 142.606903,275.637909 
	C139.196945,274.004944 136.091888,272.632599 132.907639,271.478729 
	C95.485916,257.918610 58.041973,244.419785 20.632971,230.824738 
	C14.995663,228.776047 9.506854,226.318726 3.949354,224.050430 
z"/>
<path fill="#000000" opacity="1.000000" stroke="none" 
	d="
M124.014915,2.137527 
	C114.229012,6.115750 104.383530,9.954372 94.669334,14.100595 
	C72.903656,23.390633 51.193172,32.810371 29.481041,42.225327 
	C20.178221,46.259277 10.927291,50.412895 1.326391,54.256065 
	C1.000000,36.354019 1.000000,18.708038 1.000000,1.031028 
	C88.210381,1.031028 175.420776,1.031028 263.000000,1.031028 
	C263.000000,20.352665 263.000000,39.707676 263.000000,59.531342 
	C250.702866,55.001045 238.371567,50.084248 226.115326,44.986950 
	C195.527985,32.265862 164.973877,19.464848 134.409271,6.689122 
	C131.532608,5.486701 128.676041,4.236222 125.438492,2.961710 
	C125.066849,2.915365 125.004784,2.930018 124.954628,2.709669 
	C124.607956,2.372055 124.311432,2.254790 124.014915,2.137527 
z"/>
<path fill="#000000" opacity="1.000000" stroke="none" 
	d="
M3.518368,224.004379 
	C9.506854,226.318726 14.995663,228.776047 20.632971,230.824738 
	C58.041973,244.419785 95.485916,257.918610 132.907639,271.478729 
	C136.091888,272.632599 139.196945,274.004944 142.169403,275.637909 
	C95.106773,276.000000 48.213547,276.000000 1.000000,276.000000 
	C1.000000,258.980438 1.000000,241.958878 1.000000,224.468658 
	C1.695794,223.986115 2.391588,223.972229 3.518368,224.004379 
z"/>
<path fill="#000000" opacity="1.000000" stroke="none" 
	d="
M149.468658,276.000000 
	C149.630676,275.323761 150.136932,274.296753 150.910172,274.022461 
	C171.680832,266.655304 192.474045,259.351501 213.273911,252.066956 
	C229.578033,246.356918 245.896149,240.686829 262.604004,234.999481 
	C263.000000,248.627975 263.000000,262.255951 263.000000,276.000000 
	C225.312515,276.000000 187.624908,276.000000 149.468658,276.000000 
z"/>
<path fill="#A63A60" opacity="1.000000" stroke="none" 
	d="
M124.170708,2.295100 
	C124.311432,2.254790 124.607956,2.372055 124.967636,2.738789 
	C124.770370,2.843482 124.535599,2.664954 124.170708,2.295100 
z"/>
</svg>
	d="
M263.000000,60.000000 
	C263.000000,117.687561 263.000000,175.375122 262.607788,233.512207 
	C260.304352,233.439713 258.312805,233.113464 256.493713,232.366974 
	C212.387054,214.267197 168.298813,196.122604 124.205154,177.518402 
	C124.414474,161.922058 124.759354,146.793900 124.811874,131.664719 
	C124.960854,88.748489 124.990318,45.831848 125.438492,2.961710 
	C128.676041,4.236222 131.532608,5.486701 134.409271,6.689122 
	C164.973877,19.464848 195.527985,32.265862 226.115326,44.986950 
	C238.371567,50.084248 250.702866,55.001045 263.000000,60.000000 
z"/>
<path fill="#BD4D60" opacity="1.000000" stroke="none" 
	d="
M125.066849,2.915365 
	C124.990318,45.831848 124.960854,88.748489 124.811874,131.664719 
	C124.759354,146.793900 124.414474,161.922058 123.844315,177.650238 
	C86.758499,191.995041 50.022682,205.717010 13.319648,219.526093 
	C10.086477,220.742523 7.067703,222.528809 3.518367,224.004379 
	C2.391588,223.972229 1.695794,223.986115 1.000000,224.000000 
	C1.000000,167.645767 1.000000,111.291542 1.326391,54.724724 
	C10.927291,50.412895 20.178221,46.259277 29.481041,42.225327 
	C51.193172,32.810371 72.903656,23.390633 94.669334,14.100595 
	C104.383530,9.954372 114.229012,6.115750 124.170708,2.295102 
	C124.535599,2.664954 124.770370,2.843482 125.017792,2.959138 
	C125.004784,2.930018 125.066849,2.915365 125.066849,2.915365 
z"/>
<path fill="#A63A60" opacity="1.000000" stroke="none" 
	d="
M3.949354,224.050430 
	C7.067703,222.528809 10.086477,220.742523 13.319648,219.526093 
	C50.022682,205.717010 86.758499,191.995041 123.846382,178.117935 
	C168.298813,196.122604 212.387054,214.267197 256.493713,232.366974 
	C258.312805,233.113464 260.304352,233.439713 262.607788,233.980865 
	C263.000000,234.000000 263.000000,234.500000 262.604004,234.749481 
	C245.896149,240.686829 229.578033,246.356918 213.273911,252.066956 
	C192.474045,259.351501 171.680832,266.655304 150.910172,274.022461 
	C150.136932,274.296753 149.630676,275.323761 149.000000,276.000000 
	C146.958328,276.000000 144.916672,276.000000 142.606903,275.637909 
	C139.196945,274.004944 136.091888,272.632599 132.907639,271.478729 
	C95.485916,257.918610 58.041973,244.419785 20.632971,230.824738 
	C14.995663,228.776047 9.506854,226.318726 3.949354,224.050430 
z"/>
<path fill="#000000" opacity="1.000000" stroke="none" 
	d="
M124.014915,2.137527 
	C114.229012,6.115750 104.383530,9.954372 94.669334,14.100595 
	C72.903656,23.390633 51.193172,32.810371 29.481041,42.225327 
	C20.178221,46.259277 10.927291,50.412895 1.326391,54.256065 
	C1.000000,36.354019 1.000000,18.708038 1.000000,1.031028 
	C88.210381,1.031028 175.420776,1.031028 263.000000,1.031028 
	C263.000000,20.352665 263.000000,39.707676 263.000000,59.531342 
	C250.702866,55.001045 238.371567,50.084248 226.115326,44.986950 
	C195.527985,32.265862 164.973877,19.464848 134.409271,6.689122 
	C131.532608,5.486701 128.676041,4.236222 125.438492,2.961710 
	C125.066849,2.915365 125.004784,2.930018 124.954628,2.709669 
	C124.607956,2.372055 124.311432,2.254790 124.014915,2.137527 
z"/>
<path fill="#000000" opacity="1.000000" stroke="none" 
	d="
M3.518368,224.004379 
	C9.506854,226.318726 14.995663,228.776047 20.632971,230.824738 
	C58.041973,244.419785 95.485916,257.918610 132.907639,271.478729 
	C136.091888,272.632599 139.196945,274.004944 142.169403,275.637909 
	C95.106773,276.000000 48.213547,276.000000 1.000000,276.000000 
	C1.000000,258.980438 1.000000,241.958878 1.000000,224.468658 
	C1.695794,223.986115 2.391588,223.972229 3.518368,224.004379 
z"/>
<path fill="#000000" opacity="1.000000" stroke="none" 
	d="
M149.468658,276.000000 
	C149.630676,275.323761 150.136932,274.296753 150.910172,274.022461 
	C171.680832,266.655304 192.474045,259.351501 213.273911,252.066956 
	C229.578033,246.356918 245.896149,240.686829 262.604004,234.999481 
	C263.000000,248.627975 263.000000,262.255951 263.000000,276.000000 
	C225.312515,276.000000 187.624908,276.000000 149.468658,276.000000 
z"/>
<path fill="#A63A60" opacity="1.000000" stroke="none" 
	d="
M124.170708,2.295100 
	C124.311432,2.254790 124.607956,2.372055 124.967636,2.738789 
	C124.770370,2.843482 124.535599,2.664954 124.170708,2.295100 
z"/>
</svg>